#tb 0: 1/25
0,          0,          0,        1,  2764800, 0xda69f69e
0,          1,          1,        1,  2764800, 0x29ed832f
0,          2,          2,        1,  2764800, 0xb3244cc4
0,          3,          3,        1,  2764800, 0xe41a312c
0,          4,          4,        1,  2764800, 0xac0b344b
0,          5,          5,        1,  2764800, 0xc585aa20
0,          6,          6,        1,  2764800, 0x0952054c
0,          7,          7,        1,  2764800, 0xd1a02f87
0,          8,          8,        1,  2764800, 0xfcbfe87c
0,          9,          9,        1,  2764800, 0xe4e9b8a2
